# xmcd CD database file generated by OrangeCD 6.2
#
# Track frame offsets:
#	150
#	14720
#	29121
#	41824
#	57546
#	72431
#	85508
#	101076
#	117992
#	130838
#	147262
#	160406
#	176295
#	193567
#	207955
#	221831
#	234004
#	249279
#	264639
#	277716
#
# Disc length: 3938 seconds
#
# Revision: 0
# Processed by: cddbd v1.5.2PL0 Copyright (c) Steve Scherf et al.
# Submitted via: OrangeCD 6.2
#
DISCID=260f6014
DTITLE=Kindbergs - Collection 1987-2007
DYEAR=1900
DGENRE=
TTITLE0=Ännu blommar kärleken
TTITLE1=Jag skall alltid känna glädje (I Guess It Never Hurts To Hurt Sometimes
TTITLE1=)
TTITLE2=Donna bella Donna
TTITLE3=När en stjärna faller
TTITLE4=Jag vill följa dig
TTITLE5=I ett litet hus
TTITLE6=Kärleken finns för alltid kvar
TTITLE7=Främling (Stranger)
TTITLE8=Ge mig en chans
TTITLE9=Stand by me
TTITLE10=Louise
TTITLE11=Det vackraste jag vet
TTITLE12=Finns det någon annan där än jag
TTITLE13=Julia
TTITLE14=Mina drömmars ängel
TTITLE15=Dag och natt
TTITLE16=Hem igen
TTITLE17=När alla vindarna vänder
TTITLE18=Du är så vacker
TTITLE19=Sommarvindar
EXTD=
EXTT0=
EXTT1=
EXTT2=
EXTT3=
EXTT4=
EXTT5=
EXTT6=
EXTT7=
EXTT8=
EXTT9=
EXTT10=
EXTT11=
EXTT12=
EXTT13=
EXTT14=
EXTT15=
EXTT16=
EXTT17=
EXTT18=
EXTT19=
PLAYORDER=
